<?xml version="1.0" encoding="UTF-8" ?>
<!DOCTYPE svg PUBLIC "-//W3C//DTD SVG 1.1//EN" "http://www.w3.org/Graphics/SVG/1.1/DTD/svg11.dtd">
<svg width="1000pt" height="346pt" viewBox="0 0 1675 580" version="1.1" xmlns="http://www.w3.org/2000/svg">
<g id="#d20a0aff">
<path fill="#d20a0a" opacity="1.00" d=" M 135.91 0.00 L 334.60 0.00 C 295.13 141.90 255.88 283.86 216.45 425.78 C 214.77 430.82 214.72 436.66 217.82 441.19 C 222.83 448.79 232.35 451.80 241.04 452.28 C 251.36 452.55 261.68 452.32 272.01 452.40 C 283.21 452.34 294.84 452.76 305.48 448.69 C 312.84 445.81 317.37 438.55 319.34 431.19 C 359.30 287.47 399.08 143.70 439.10 0.00 L 636.62 0.00 C 594.62 151.00 552.77 302.04 510.82 453.06 C 506.30 469.09 502.04 485.20 497.34 501.18 C 491.29 520.62 481.30 539.53 465.42 552.70 C 453.68 562.69 438.98 568.35 424.16 571.96 C 403.20 577.19 381.56 578.58 360.08 580.00 L 104.20 580.00 C 78.95 578.42 53.09 572.63 32.04 557.98 C 18.23 548.61 7.12 534.81 2.60 518.59 C 0.37 511.62 0.81 504.21 0.85 497.00 C 0.89 488.41 3.84 480.25 6.00 472.04 C 49.63 314.70 93.30 157.36 136.91 0.01 L 135.91 0.00 Z" />
<path fill="#d20a0a" opacity="1.00" d=" M 730.61 0.00 L 1157.59 0.00 C 1145.73 42.45 1134.02 84.95 1122.21 127.42 C 979.87 127.45 837.54 127.44 695.20 127.43 C 706.99 84.95 718.71 42.45 730.61 0.00 Z" />
<path fill="#d20a0a" opacity="1.00" d=" M 1350.38 0.00 L 1674.29 0.00 C 1669.62 19.27 1663.78 38.27 1658.65 57.43 C 1652.17 80.76 1645.69 104.09 1639.22 127.42 C 1569.14 127.44 1499.05 127.42 1428.97 127.43 C 1418.71 127.52 1408.04 127.43 1398.39 131.40 C 1390.53 134.72 1386.44 142.95 1384.45 150.80 C 1358.88 243.01 1333.28 335.23 1307.73 427.45 C 1305.87 433.18 1307.46 439.73 1311.73 443.97 C 1318.00 450.38 1327.37 452.39 1336.04 452.39 C 1412.37 452.41 1488.70 452.39 1565.03 452.41 C 1553.25 494.94 1541.44 537.47 1529.64 580.00 L 1205.22 580.00 C 1180.92 578.46 1156.12 573.09 1135.49 559.60 C 1121.95 550.94 1110.56 538.36 1105.11 523.09 C 1100.11 509.98 1100.53 495.37 1104.31 482.01 C 1140.98 349.87 1177.66 217.73 1214.35 85.59 C 1219.67 66.15 1228.16 46.98 1242.50 32.47 C 1251.97 22.76 1263.99 15.80 1276.82 11.56 C 1300.50 3.58 1325.61 1.64 1350.38 0.00 Z" />
<path fill="#d20a0a" opacity="1.00" d=" M 670.69 215.39 C 813.05 215.37 955.41 215.38 1097.77 215.39 C 1085.96 257.97 1074.14 300.54 1062.32 343.11 C 985.82 343.14 909.33 343.11 832.83 343.13 C 810.91 422.08 789.04 501.04 767.12 579.99 L 768.47 580.00 L 569.52 580.00 C 603.31 458.48 636.96 336.93 670.69 215.39 Z" />
</g>
</svg>
